<svg xmlns="http://www.w3.org/2000/svg" viewBox="0 0 400 400" role="img" aria-label="Craft product photography placeholder">
  <defs>
    <linearGradient id="g" x1="0" y1="0" x2="1" y2="1">
      <stop offset="0" stop-color="#FDF8EC"/><stop offset="1" stop-color="#F2DDA3"/>
    </linearGradient>
    <pattern id="dots" width="18" height="18" patternUnits="userSpaceOnUse">
      <circle cx="2" cy="2" r="1" fill="#845F17" opacity="0.10"/>
    </pattern>
  </defs>
  <rect width="400" height="400" fill="url(#g)"/>
  <rect width="400" height="400" fill="url(#dots)"/>
  <ellipse cx="200" cy="330" rx="118" ry="20" fill="#845F17" opacity="0.10"/>
  <g fill="none" stroke="#845F17" stroke-width="4" stroke-linecap="round" stroke-linejoin="round" opacity="0.85">
    <path d="M200 96c34 0 62 24 62 54 0 22-14 36-14 56v22h-96v-22c0-20-14-34-14-56 0-30 28-54 62-54Z"/>
    <path d="M152 228h96l16 62H136Z"/>
    <path d="M200 96V70M180 76l-10-16M220 76l10-16"/>
    <path d="M170 152c18-14 42-14 60 0"/>
  </g>
</svg>
